<?xml version="1.0" ?><svg id="Layer_1" style="enable-background:new 0 0 96 96;" version="1.1" viewBox="0 0 96 96" xml:space="preserve" xmlns="http://www.w3.org/2000/svg" xmlns:xlink="http://www.w3.org/1999/xlink"><style type="text/css">
	.st0{fill-rule:evenodd;clip-rule:evenodd;fill:#58595B;}
	.st1{fill-rule:evenodd;clip-rule:evenodd;fill:#EA4F37;}
	.st2{fill-rule:evenodd;clip-rule:evenodd;fill:#D1D3D4;}
	.st3{fill-rule:evenodd;clip-rule:evenodd;fill:#00AEEF;}
</style><g><polygon class="st0" points="96.4,28.3 96.4,30.3 96.4,36.3 84.4,36.3 84.4,96.3 22.4,96.3 22.4,36.3 0.4,36.3 0.4,26.8 22.4,13.7    32.5,19.7 59.5,0.3 96.4,26.9  "/><g><polygon class="st1" points="4.4,96.3 40.4,96.3 40.4,29 22.4,18.3 4.4,29   "/><rect class="st1" height="63.9" width="48" x="44.4" y="32.3"/></g><polygon class="st2" points="24.1,57.3 10.4,57.3 10.4,32.3 34.4,32.3 34.4,57.3  "/><rect class="st3" height="8" width="16" x="14.4" y="45.3"/><rect class="st3" height="5" width="16" x="14.4" y="36.3"/><polygon class="st2" points="24.1,87.3 10.4,87.3 10.4,62.3 34.4,62.3 34.4,87.3  "/><rect class="st3" height="8" width="16" x="14.4" y="75.3"/><rect class="st3" height="5" width="16" x="14.4" y="66.3"/><polygon class="st2" points="57.5,62.3 48.4,62.3 48.4,37.4 64.4,37.4 64.4,62.3  "/><rect class="st3" height="8" width="8" x="52.4" y="50.3"/><rect class="st3" height="5" width="8" x="52.4" y="41.4"/><polygon class="st2" points="57.5,92.3 48.4,92.3 48.4,67.4 64.4,67.4 64.4,92.3  "/><rect class="st3" height="8" width="8" x="52.4" y="80.3"/><rect class="st3" height="5" width="8" x="52.4" y="71.4"/><polygon class="st2" points="79.8,62.3 68.4,62.3 68.4,37.4 88.4,37.4 88.4,62.3  "/><rect class="st3" height="8" width="12" x="72.4" y="50.3"/><rect class="st3" height="5" width="12" x="72.4" y="41.4"/><polygon class="st2" points="79.8,92.3 68.4,92.3 68.4,67.4 88.4,67.4 88.4,92.3  "/><rect class="st3" height="8" width="12" x="72.4" y="80.3"/><rect class="st3" height="5" width="12" x="72.4" y="71.4"/><path class="st2" d="M54.4,11.1h4v4h-4V11.1L54.4,11.1z M54.4,19.1h4v4h-4V19.1L54.4,19.1z M62.4,19.1h4v4h-4V19.1L62.4,19.1z    M62.4,11.1h4v4h-4V11.1z"/></g></svg>