<?xml version="1.0" ?><!DOCTYPE svg  PUBLIC '-//W3C//DTD SVG 1.1//EN'  'http://www.w3.org/Graphics/SVG/1.1/DTD/svg11.dtd'><svg height="100%" style="fill-rule:evenodd;clip-rule:evenodd;stroke-linejoin:round;stroke-miterlimit:1.41421;" version="1.1" viewBox="0 0 32 32" width="100%" xml:space="preserve" xmlns="http://www.w3.org/2000/svg" xmlns:serif="http://www.serif.com/" xmlns:xlink="http://www.w3.org/1999/xlink"><rect height="32" id="Bag" style="fill:none;" width="32" x="0" y="0"/><path d="M27.001,11c0.001,-0.02 0.002,-0.04 0.004,-0.06c0.025,-0.261 0.158,-0.509 0.361,-0.675c0.151,-0.125 0.341,-0.203 0.536,-0.223c0.065,-0.006 0.131,-0.003 0.196,0c0.032,0.005 0.065,0.008 0.097,0.015c0.257,0.051 0.491,0.207 0.636,0.425c0.091,0.136 0.148,0.295 0.164,0.458c0.003,0.032 0.003,0.065 0.005,0.098l0,14.963c-0.001,0.763 -0.305,1.526 -0.841,2.082c-0.528,0.547 -1.273,0.883 -2.034,0.914c-0.039,0.002 -0.077,0.003 -0.115,0.003c-6.67,0.01 -13.341,0 -20.011,0c-0.777,-0.001 -1.555,-0.317 -2.114,-0.872c-0.532,-0.53 -0.854,-1.264 -0.883,-2.013c-0.001,-0.038 -0.002,-0.076 -0.002,-0.114l0,-14.963c0.004,-0.087 0.002,-0.11 0.019,-0.196c0.064,-0.32 0.294,-0.602 0.598,-0.728c0.362,-0.15 0.808,-0.066 1.09,0.216c0.162,0.162 0.266,0.381 0.288,0.61c0.002,0.02 0.003,0.04 0.004,0.06l22.002,0Z" style="fill:#8d6e63;fill-rule:nonzero;"/><path d="M17.009,3c0.88,0.004 1.747,0.41 2.312,1.099c0.434,0.53 0.678,1.209 0.679,1.9l0,2.001c-0.002,0.033 -0.002,0.065 -0.005,0.098c-0.038,0.389 -0.323,0.743 -0.705,0.859c-0.062,0.019 -0.127,0.032 -0.192,0.038c-0.033,0.003 -0.065,0.003 -0.098,0.005l-6,0c-0.033,-0.002 -0.065,-0.002 -0.098,-0.005c-0.389,-0.038 -0.743,-0.323 -0.859,-0.705c-0.019,-0.062 -0.032,-0.127 -0.038,-0.192c-0.003,-0.033 -0.003,-0.065 -0.005,-0.098l0,-2.001c0.001,-0.826 0.359,-1.648 0.973,-2.21c0.535,-0.491 1.252,-0.777 1.98,-0.789c0.013,0 0.025,0 0.038,0c0.673,-0.001 1.345,-0.001 2.018,0Zm-2.008,2c-0.412,0.001 -0.812,0.275 -0.948,0.68c-0.035,0.103 -0.053,0.212 -0.053,0.321l0,0.999l4,0c0,-0.335 0.002,-0.671 0,-1.006c-0.002,-0.317 -0.165,-0.63 -0.425,-0.812c-0.165,-0.116 -0.365,-0.18 -0.569,-0.182c-0.668,-0.003 -1.337,0 -2.005,0Z" style="fill:#795548;fill-rule:nonzero;"/><path d="M15,3c0.67,-0.001 1.34,-0.001 2.009,0c0.88,0.004 1.747,0.41 2.312,1.099c0.434,0.53 0.678,1.209 0.679,1.9l0,2.001c-0.002,0.033 -0.002,0.065 -0.005,0.098c-0.038,0.389 -0.323,0.743 -0.705,0.859c-0.062,0.019 -0.127,0.032 -0.192,0.038c-0.033,0.003 -0.065,0.003 -0.098,0.005l-3,0l0,-2l2,0c0,-0.335 0.002,-0.671 0,-1.006c-0.002,-0.317 -0.165,-0.63 -0.425,-0.812c-0.165,-0.116 -0.365,-0.18 -0.569,-0.182c-0.335,-0.002 -0.671,-0.002 -1.006,-0.001l0,-1.999l-1,0Z" style="fill:#4e342e;fill-rule:nonzero;"/><path d="M16,11l11.001,0c0.001,-0.02 0.002,-0.04 0.004,-0.06c0.025,-0.261 0.158,-0.509 0.361,-0.675c0.151,-0.125 0.341,-0.203 0.536,-0.223c0.065,-0.006 0.131,-0.003 0.196,0c0.032,0.005 0.065,0.008 0.097,0.015c0.257,0.051 0.491,0.207 0.636,0.425c0.091,0.136 0.148,0.295 0.164,0.458c0.003,0.032 0.003,0.065 0.005,0.098l0,14.963c-0.001,0.763 -0.305,1.526 -0.841,2.082c-0.528,0.547 -1.273,0.883 -2.034,0.914c-0.039,0.002 -0.077,0.003 -0.115,0.003c-3.337,0.005 -6.673,0.005 -10.01,0.004l0,-18.004Z" style="fill:#795548;fill-rule:nonzero;"/><path d="M14.801,16c0.001,0.038 -0.001,0.075 -0.006,0.113c-0.044,0.388 -0.333,0.738 -0.717,0.848c-0.22,0.063 -0.462,0.048 -0.673,-0.043c-0.03,-0.013 -0.058,-0.029 -0.088,-0.043c-3.258,-1.805 -6.519,-3.606 -9.776,-5.414c-0.677,-0.377 -1.202,-1.029 -1.422,-1.783c-0.078,-0.27 -0.118,-0.552 -0.119,-0.832l0,-0.005l0,-0.841l0.005,-0.098c0.005,-0.032 0.008,-0.065 0.014,-0.097c0.07,-0.352 0.342,-0.656 0.691,-0.762c0.062,-0.019 0.127,-0.032 0.192,-0.038c0.033,-0.003 0.065,-0.003 0.098,-0.005l26,0c0.033,0.002 0.065,0.003 0.098,0.005c0.032,0.005 0.065,0.008 0.097,0.014c0.257,0.051 0.491,0.208 0.636,0.425c0.091,0.137 0.148,0.295 0.164,0.458c0.003,0.033 0.003,0.065 0.005,0.098c0,0.27 0,0.54 0,0.81c-0.002,0.539 -0.151,1.077 -0.429,1.539c-0.267,0.445 -0.65,0.816 -1.104,1.072l-0.006,0.002l-9.774,5.45l-0.088,0.044c-0.03,0.011 -0.06,0.025 -0.092,0.035c-0.373,0.12 -0.81,0 -1.068,-0.304c-0.153,-0.179 -0.236,-0.414 -0.237,-0.648l-2.401,0Z" style="fill:#795548;fill-rule:nonzero;"/><path d="M16,7l13,0c0.033,0.002 0.065,0.003 0.098,0.005c0.032,0.005 0.065,0.008 0.097,0.014c0.257,0.051 0.491,0.208 0.636,0.425c0.091,0.137 0.148,0.295 0.164,0.458c0.003,0.033 0.003,0.065 0.005,0.098c0,0.27 0,0.54 0,0.81c-0.002,0.539 -0.151,1.077 -0.429,1.539c-0.267,0.445 -0.65,0.816 -1.104,1.072l-0.006,0.002l-9.774,5.45l-0.088,0.044c-0.03,0.011 -0.06,0.025 -0.092,0.035c-0.373,0.12 -0.81,0 -1.068,-0.304c-0.153,-0.179 -0.236,-0.413 -0.237,-0.648l-1.202,0l0,-9Z" style="fill:#4e342e;fill-rule:nonzero;"/><path d="M18,19l-4,0c-0.033,-0.002 -0.065,-0.002 -0.098,-0.005c-0.389,-0.038 -0.743,-0.323 -0.859,-0.705c-0.019,-0.062 -0.032,-0.127 -0.038,-0.192c-0.003,-0.033 -0.003,-0.065 -0.005,-0.098l0,-4c0.002,-0.033 0.002,-0.065 0.005,-0.098c0.038,-0.389 0.323,-0.743 0.705,-0.859c0.062,-0.019 0.127,-0.032 0.192,-0.038c0.033,-0.003 0.065,-0.003 0.098,-0.005l4,0c0.033,0.002 0.065,0.003 0.098,0.005c0.032,0.005 0.065,0.008 0.097,0.014c0.352,0.07 0.656,0.342 0.762,0.691c0.019,0.062 0.032,0.127 0.038,0.192c0.003,0.033 0.003,0.065 0.005,0.098l0,4c-0.002,0.033 -0.002,0.065 -0.005,0.098c-0.025,0.261 -0.158,0.509 -0.361,0.675c-0.151,0.125 -0.341,0.203 -0.536,0.222c-0.033,0.003 -0.065,0.003 -0.098,0.005Z" style="fill:#bfbfbf;"/><path d="M16,13l2,0c0.033,0.002 0.065,0.003 0.098,0.005c0.032,0.005 0.065,0.008 0.097,0.014c0.352,0.07 0.656,0.342 0.762,0.691c0.019,0.062 0.032,0.127 0.038,0.192c0.003,0.033 0.003,0.065 0.005,0.098l0,4c-0.002,0.033 -0.002,0.065 -0.005,0.098c-0.025,0.261 -0.158,0.509 -0.361,0.675c-0.151,0.125 -0.341,0.203 -0.536,0.222c-0.033,0.003 -0.065,0.003 -0.098,0.005l-2,0l0,-6Z" style="fill:#999;"/></svg>