<?xml version="1.0" ?><svg data-name="Layer 1" id="Layer_1" viewBox="0 0 48 48" xmlns="http://www.w3.org/2000/svg"><defs><style>.cls-1{fill:#55aae1;}.cls-2{opacity:0.35;}</style></defs><title/><path class="cls-1" d="M44,22a1,1,0,0,1-.62-.22l-18.75-15a1,1,0,0,0-1.25,0l-18.76,15a1,1,0,1,1-1.24-1.56l18.75-15a3,3,0,0,1,3.74,0l18.75,15a1,1,0,0,1,.16,1.4A1,1,0,0,1,44,22Z"/><path class="cls-1" d="M37,44H11a3,3,0,0,1-3-3V17.16h2V41a1,1,0,0,0,1,1H37a1,1,0,0,0,1-1V17.16h2V41A3,3,0,0,1,37,44Z"/><g class="cls-2"><path class="cls-1" d="M37,15H36V37a3,3,0,0,1-3,3H8v1a3,3,0,0,0,3,3H37a3,3,0,0,0,3-3V18A3,3,0,0,0,37,15Z"/></g></svg>