<?xml version="1.0" ?><svg enable-background="new 0 0 24 24" id="Layer_1" version="1.1" viewBox="0 0 24 24" xml:space="preserve" xmlns="http://www.w3.org/2000/svg" xmlns:xlink="http://www.w3.org/1999/xlink"><g><path d="M14.1471558,19.8394775c0.09375,0.09375,0.2207031,0.1464844,0.3535156,0.1464844   s0.2597656-0.0527344,0.3535156-0.1464844l5-5c0.09375-0.09375,0.1464844-0.2207031,0.1464844-0.3535156   s-0.0527344-0.2597656-0.1464844-0.3535156l-1.2330322-1.232666c0.2399292-0.4289551,0.3795166-0.9085083,0.3795166-1.4138184   c0-0.7788086-0.3027344-1.5107422-0.8535156-2.0605469L9.5612183,0.8394775c-1.1015625-1.1005859-3.0195312-1.1005859-4.1210938,0   L0.854187,5.425415C0.3034057,5.9752197,0.0006714,6.7071533,0.0006714,7.4859619S0.3034057,8.9967041,0.854187,9.5465088   l8.5859375,8.5859375c0.5507812,0.550293,1.2832031,0.8535156,2.0605469,0.8535156   c0.5045166,0,0.9841919-0.1397705,1.4134521-0.3798828L14.1471558,19.8394775z" fill="#303C42"/><rect fill="#D7D8D6" height="1.1214272" transform="matrix(0.70727 -0.7069435 0.7069435 0.70727 -6.720849 16.2410583)" width="6.0709157" x="13.2152138" y="15.6752481"/><rect fill="#E4CE9B" height="7.4853883" transform="matrix(0.7071068 -0.7071068 0.7071068 0.7071068 -3.9249058 9.4963627)" width="10.3138151" x="4.3437638" y="5.743268"/><path d="M1.0006714,7.4859619c0-0.5117188,0.1992188-0.9921875,0.5605469-1.3535156l4.5859375-4.5859375   c0.3623047-0.3613281,0.8427734-0.5605469,1.3535156-0.5605469S8.4918823,1.1851807,8.854187,1.5465088l0.9394531,0.9394531   L2.5006714,9.7789307L1.5612183,8.8394775C1.1998901,8.4781494,1.0006714,7.9976807,1.0006714,7.4859619z" fill="#D7D8D6"/><path d="M10.1471558,17.425415l-0.9394531-0.9394531l7.2929688-7.2929688l0.9394531,0.9394531   c0.3613281,0.3613281,0.5605469,0.8417969,0.5605469,1.3535156s-0.1992188,0.9921875-0.5605469,1.3535156L12.854187,17.425415   C12.1295776,18.1480713,10.8717651,18.1480713,10.1471558,17.425415z" fill="#D7D8D6"/><rect fill="#FFFFFF" height="7.4853883" opacity="0.2" transform="matrix(0.7071068 -0.7071068 0.7071068 0.7071068 -0.5330601 10.9013119)" width="0.7202269" x="12.5324039" y="2.3514221"/><path d="M6.1471558,2.5650635c0.3623047-0.3613281,0.8427734-0.5605469,1.3535156-0.5605469   S8.4918823,2.2037354,8.854187,2.5650635l0.4301758,0.4301758l0.5092773-0.5092773L8.854187,1.5465088   C8.4918823,1.1851807,8.0114136,0.9859619,7.5006714,0.9859619S6.5094604,1.1851807,6.1471558,1.5465088L1.5612183,6.1324463   C1.1998901,6.4937744,1.0006714,6.9742432,1.0006714,7.4859619c0,0.1755371,0.0315552,0.3446655,0.0769653,0.5092773   C1.1645508,7.6799316,1.3238525,7.3883667,1.5612183,7.151001L6.1471558,2.5650635z" fill="#FFFFFF" opacity="0.2"/><path d="M17.9237061,11.9952393c0.0454102-0.1646118,0.0769653-0.3337402,0.0769653-0.5092773   c0-0.5117188-0.1992188-0.9921875-0.5605469-1.3535156l-0.9394531-0.9394531L15.991394,9.7022705l1.4487305,1.4487305   C17.6774902,11.3883667,17.836792,11.6799316,17.9237061,11.9952393z" fill="#FFFFFF" opacity="0.2"/><path d="M23.4254761,20.6324463l-2.0712891-2.0712891c-0.7666016-0.7670898-2.0136719-0.7651367-2.7783203,0   c-0.3833008,0.383667-0.5689087,0.901001-0.5587158,1.4248047h-2.0164795c-1.1025391,0-2,0.8969727-2,2s0.8974609,2,2,2h3   c0.6078491,0,1.1466064-0.2784424,1.5137939-0.7078857l0.1326904,0.1326904   c0.3828125,0.3828125,0.8857422,0.5742188,1.3886719,0.5742188c0.5039062,0,1.0068359-0.1914062,1.3896484-0.574707   C24.1911011,22.644165,24.1901245,21.3980713,23.4254761,20.6324463z" fill="#303C42"/><path d="M19.0006714,22.9859619h-3c-0.5517578,0-1-0.4487305-1-1s0.4482422-1,1-1h3c0.5517578,0,1,0.4487305,1,1   S19.5524292,22.9859619,19.0006714,22.9859619z" fill="#FFDA02"/><path d="M19.4087524,21.0775757c0.0567017,0.1253662,0.0919189,0.262085,0.0919189,0.4083862   c0,0.5512695-0.4482422,1-1,1h-3c-0.1462402,0-0.2828369-0.0350342-0.4080811-0.0916138   c0.1569824,0.3470459,0.5027466,0.5916138,0.9080811,0.5916138h3c0.5517578,0,1-0.4487305,1-1   C20.0006714,21.5807495,19.7561646,21.2344971,19.4087524,21.0775757z" opacity="0.1"/><path d="M22.7184448,22.7037354c-0.3769531,0.3759766-0.9873047,0.3759766-1.3642578,0l-0.3869629-0.3869629   c0.0181885-0.1081543,0.0334473-0.2175293,0.0334473-0.3308105c0-1.1003418-0.8932495-1.994812-1.9921265-1.9992065   c-0.010437-0.2639771,0.0823364-0.5258789,0.274353-0.7185669c0.3769531-0.3759766,0.9873047-0.3759766,1.3642578,0   l2.0712891,2.0712891C23.0944214,21.7154541,23.0934448,22.3277588,22.7184448,22.7037354z" fill="#FFDA02"/><path d="M22.7184448,21.3394775l-0.4986572-0.4986572c0.375061,0.3761597,0.3739624,0.9874878-0.0007324,1.3631592   c-0.3427124,0.3417969-0.8704834,0.3565674-1.24823,0.0769043c-0.0018921,0.0117798-0.0016479,0.0241699-0.0036011,0.0358887   l0.3869629,0.3869629c0.3769531,0.3759766,0.9873047,0.3759766,1.3642578,0   C23.0934448,22.3277588,23.0944214,21.7154541,22.7184448,21.3394775z" opacity="0.1"/><linearGradient gradientUnits="userSpaceOnUse" id="SVGID_1_" x1="0.1421928" x2="25.8388996" y1="6.5320649" y2="18.514637"><stop offset="0" style="stop-color:#FFFFFF;stop-opacity:0.2"/><stop offset="1" style="stop-color:#FFFFFF;stop-opacity:0"/></linearGradient><path d="M14.5006714,19.9859619c0.1328125,0,0.2597656-0.0527344,0.3535156-0.1464844l5-5   c0.09375-0.09375,0.1464844-0.2207031,0.1464844-0.3535156s-0.0527344-0.2597656-0.1464844-0.3535156l-1.2330322-1.232666   c0.2399292-0.4289551,0.3795166-0.9085083,0.3795166-1.4138184c0-0.7788086-0.3027344-1.5107422-0.8535156-2.0605469   L9.5612183,0.8394775c-1.1015625-1.1005859-3.0195312-1.1005859-4.1210938,0L0.854187,5.425415   C0.3034057,5.9752197,0.0006714,6.7071533,0.0006714,7.4859619S0.3034057,8.9967041,0.854187,9.5465088l8.5859375,8.5859375   c0.5507812,0.550293,1.2832031,0.8535156,2.0605469,0.8535156c0.5045166,0,0.9841919-0.1397705,1.4134521-0.3798828   l1.2330322,1.2333984C14.2409058,19.9332275,14.3678589,19.9859619,14.5006714,19.9859619z M23.4254761,20.6324463   l-2.0712891-2.0712891c-0.7666016-0.7670898-2.0136719-0.7651367-2.7783203,0   c-0.3833008,0.383667-0.5689087,0.901001-0.5587158,1.4248047h-2.0164795c-1.1025391,0-2,0.8969727-2,2s0.8974609,2,2,2h3   c0.6078491,0,1.1466064-0.2784424,1.5137939-0.7078857l0.1326904,0.1326904   c0.3828125,0.3828125,0.8857422,0.5742188,1.3886719,0.5742188c0.5039062,0,1.0068359-0.1914062,1.3896484-0.574707   C24.1911011,22.644165,24.1901245,21.3980713,23.4254761,20.6324463z" fill="url(#SVGID_1_)"/></g><g/><g/><g/><g/><g/><g/><g/><g/><g/><g/><g/><g/><g/><g/><g/></svg>